G04 PROTEUS GERBER X2 FILE*
%TF.GenerationSoftware,Labcenter,Proteus,8.17-SP5-Build39395*%
%TF.CreationDate,2025-01-31T21:13:05+00:00*%
%TF.FileFunction,AssemblyDrawing,Bot*%
%TF.FilePolarity,Positive*%
%TF.Part,Single*%
%TF.SameCoordinates,{25d9a88a-2623-41a1-bce1-36a6f26497cc}*%
%FSLAX45Y45*%
%MOMM*%
G01*
%TA.AperFunction,Material*%
%ADD52C,0.101600*%
%ADD178C,0.718420*%
%ADD179C,0.227260*%
%TA.AperFunction,Profile*%
%ADD46C,0.101600*%
%TA.AperFunction,Material*%
%ADD159C,0.540000*%
%ADD180C,0.169320*%
%TD.AperFunction*%
D52*
X+3105000Y+1016907D02*
X+2466907Y+1655000D01*
X+3105000Y+2293093D01*
X+3743093Y+1655000D01*
X+3105000Y+1016907D01*
D178*
X+3472695Y+1492366D02*
X+3472695Y+1492366D01*
D179*
X+3314443Y+1879445D02*
X+3312435Y+1845296D01*
X+3240121Y+1772981D01*
X+3205972Y+1770973D01*
X+3189902Y+1787043D01*
X+3191910Y+1821192D01*
X+3264224Y+1893506D01*
X+3266233Y+1927655D01*
X+3250164Y+1943724D01*
X+3216015Y+1941716D01*
X+3143700Y+1869402D01*
X+3141692Y+1835253D01*
X+3089464Y+1815166D02*
X+3185885Y+1718745D01*
X+3083438Y+1712720D01*
X+3077413Y+1610274D01*
X+2980993Y+1706694D01*
X+2942826Y+1636387D02*
X+2908677Y+1634379D01*
X+2854441Y+1580143D01*
X+2852433Y+1545994D01*
X+2868503Y+1529924D01*
X+2902651Y+1531933D01*
X+2956887Y+1586169D01*
X+2991036Y+1588177D01*
X+3023176Y+1556037D01*
X+2932783Y+1465644D01*
D46*
X+0Y+0D02*
X+6200000Y+0D01*
X+6200000Y+5800000D01*
X+0Y+5800000D01*
X+0Y+0D01*
D52*
X+5770000Y+4194920D02*
X+6165080Y+4194920D01*
X+6165080Y+4997500D01*
X+5770000Y+4997500D01*
X+5770000Y+4194920D01*
D159*
X+5870000Y+4400000D02*
X+5870000Y+4400000D01*
D180*
X+5984473Y+4864641D02*
X+6001405Y+4864641D01*
X+6018338Y+4845593D01*
X+6018338Y+4769397D01*
X+6001405Y+4750348D01*
X+5916743Y+4750348D01*
X+5933676Y+4693202D02*
X+5916743Y+4674153D01*
X+5916743Y+4617006D01*
X+5933676Y+4597957D01*
X+5950608Y+4597957D01*
X+5967540Y+4617006D01*
X+5984473Y+4597957D01*
X+6001405Y+4597957D01*
X+6018338Y+4617006D01*
X+6018338Y+4674153D01*
X+6001405Y+4693202D01*
X+5967540Y+4655104D02*
X+5967540Y+4617006D01*
M02*
