G04 PROTEUS GERBER X2 FILE*
%TF.GenerationSoftware,Labcenter,Proteus,8.17-SP5-Build39395*%
%TF.CreationDate,2025-01-31T21:13:05+00:00*%
%TF.FileFunction,Plated,1,2,PTH*%
%TF.FilePolarity,Positive*%
%TF.Part,Single*%
%TF.SameCoordinates,{25d9a88a-2623-41a1-bce1-36a6f26497cc}*%
%FSLAX45Y45*%
%MOMM*%
G01*
%TA.AperFunction,ViaDrill*%
%ADD183C,0.381000*%
%TA.AperFunction,ComponentDrill*%
%ADD184C,0.600000*%
%TA.AperFunction,OtherDrill,Unknown*%
%ADD185C,0.381000*%
%ADD186C,3.200000*%
%TD.AperFunction*%
D183*
X+2060093Y+4384997D03*
X+2059748Y+4511980D03*
X+1699766Y+3272345D03*
X+1699878Y+3144942D03*
X+1601886Y+4257935D03*
X+300000Y+3600000D03*
X+4100000Y+4893081D03*
X+3100000Y+4170000D03*
X+3100000Y+4370000D03*
X+2900000Y+4170000D03*
X+2900000Y+4370000D03*
X+1360000Y+400000D03*
X+490928Y+1024082D03*
X+852682Y+3400097D03*
X+2059845Y+4639069D03*
X+600000Y+3200000D03*
X+600000Y+3500000D03*
X+600000Y+3800000D03*
X+187509Y+4113161D03*
X+640000Y+5100000D03*
X+5390000Y+2800000D03*
X+4600000Y+2200000D03*
X+4400000Y+2900000D03*
X+4300000Y+4200000D03*
X+4210000Y+2200000D03*
X+4300000Y+3000000D03*
X+4400000Y+2200000D03*
X+4300000Y+2800000D03*
X+5597682Y+2898946D03*
X+5597553Y+3349596D03*
X+5390000Y+3261362D03*
X+990000Y+2200000D03*
X+800000Y+2963845D03*
X+3196880Y+826880D03*
X+2100000Y+5500000D03*
X+3793261Y+3370000D03*
X+3700000Y+3600000D03*
X+3700000Y+3902540D03*
X+3700000Y+5300000D03*
X+3370000Y+810000D03*
X+3708134Y+844602D03*
X+5530000Y+1210000D03*
X+3028299Y+852999D03*
X+1200000Y+2800000D03*
X+2550804Y+1820804D03*
X+2160000Y+2200000D03*
X+1830000Y+2200000D03*
X+1200000Y+2200000D03*
X+2160000Y+2390000D03*
X+2650000Y+1920000D03*
X+1677397Y+2508914D03*
X+2847862Y+2117862D03*
X+2160000Y+2780000D03*
X+3000000Y+3020000D03*
X+2550000Y+2310000D03*
X+2150794Y+2600100D03*
X+1680000Y+2637000D03*
X+2750000Y+2020000D03*
X+4587054Y+1669540D03*
X+1500000Y+840000D03*
X+919998Y+840000D03*
X+657702Y+1247854D03*
X+600000Y+2552861D03*
X+700000Y+4000000D03*
X+700000Y+4560000D03*
X+700000Y+2400000D03*
X+800000Y+3200000D03*
X+2460000Y+1720000D03*
X+4320000Y+1080000D03*
X+2860000Y+790000D03*
X+2300000Y+700000D03*
X+2580000Y+990000D03*
X+5200000Y+5110000D03*
X+4100064Y+3623438D03*
X+5000000Y+5110000D03*
X+4099732Y+3876823D03*
X+4800000Y+5110000D03*
X+4100000Y+4004000D03*
X+4900000Y+5000000D03*
X+4100000Y+3750000D03*
X+5100000Y+5000000D03*
X+4099511Y+3495974D03*
X+5300000Y+5000000D03*
X+2100000Y+5200000D03*
X+4101403Y+5414884D03*
X+3800000Y+5500000D03*
X+4758737Y+3798737D03*
X+5580000Y+1620000D03*
X+4686831Y+3509120D03*
X+4970000Y+3800000D03*
X+5500000Y+4800000D03*
X+5335947Y+3543324D03*
X+2060136Y+4765983D03*
X+5380000Y+4720000D03*
X+3700000Y+5600000D03*
X+3360000Y+5260000D03*
X+2399727Y+3368634D03*
X+5200000Y+5600000D03*
X+4600000Y+5500000D03*
X+3672217Y+3099684D03*
X+3800000Y+1840000D03*
X+3760000Y+2330000D03*
X+3566492Y+2523508D03*
X+2600000Y+2900000D03*
D184*
X+2666730Y+283000D02*
X+2669270Y+283000D01*
X+2669270Y+163000D01*
X+2666730Y+163000D01*
X+2666730Y+283000D01*
X+2666730Y+682990D02*
X+2669270Y+682990D01*
X+2669270Y+562990D01*
X+2666730Y+562990D01*
X+2666730Y+682990D01*
X+3530730Y+682988D02*
X+3533270Y+682988D01*
X+3533270Y+562988D01*
X+3530730Y+562988D01*
X+3530730Y+682988D01*
X+3530730Y+283000D02*
X+3533270Y+283000D01*
X+3533270Y+163000D01*
X+3530730Y+163000D01*
X+3530730Y+283000D01*
D185*
X+2000000Y+1100000D03*
X+1164388Y+1061008D03*
X+2100000Y+5020000D03*
D186*
X+300000Y+300000D03*
X+300000Y+5500000D03*
X+5900000Y+5500000D03*
X+5900000Y+300000D03*
D185*
X+890000Y+200000D03*
X+2000000Y+1390000D03*
X+310000Y+3310000D03*
X+437240Y+2353050D03*
X+430000Y+3921060D03*
X+178160Y+2353050D03*
X+2530000Y+3100000D03*
X+1520000Y+3500000D03*
X+1340000Y+3020000D03*
X+780000Y+1660000D03*
X+1470000Y+4750000D03*
X+1470000Y+5060000D03*
X+590000Y+4953940D03*
X+250000Y+4460000D03*
X+950000Y+4160000D03*
X+5070000Y+1930000D03*
X+6070000Y+990000D03*
X+5590000Y+1880000D03*
X+5530000Y+1420000D03*
X+3820000Y+1370000D03*
X+4370000Y+1930000D03*
X+1450000Y+5400000D03*
X+4700000Y+5110000D03*
X+4200000Y+5020000D03*
X+5310000Y+130000D03*
X+6070000Y+1880000D03*
X+5180000Y+4060000D03*
X+3510000Y+2690000D03*
X+6080000Y+3960000D03*
M02*
