G04 PROTEUS GERBER X2 FILE*
%TF.GenerationSoftware,Labcenter,Proteus,8.17-SP5-Build39395*%
%TF.CreationDate,2025-01-31T21:13:05+00:00*%
%TF.FileFunction,Soldermask,Bot*%
%TF.FilePolarity,Negative*%
%TF.Part,Single*%
%TF.SameCoordinates,{25d9a88a-2623-41a1-bce1-36a6f26497cc}*%
%FSLAX45Y45*%
%MOMM*%
G01*
%TA.AperFunction,Material*%
%ADD62C,1.016000*%
%AMPPAD059*
4,1,36,
-0.195200,1.227000,
0.195200,1.227000,
0.282210,1.218230,
0.363260,1.193060,
0.436600,1.153240,
0.500510,1.100510,
0.553240,1.036600,
0.593060,0.963260,
0.618230,0.882210,
0.627000,0.795200,
0.627000,-0.795200,
0.618230,-0.882210,
0.593060,-0.963260,
0.553240,-1.036600,
0.500510,-1.100510,
0.436600,-1.153240,
0.363260,-1.193060,
0.282210,-1.218230,
0.195200,-1.227000,
-0.195200,-1.227000,
-0.282210,-1.218230,
-0.363260,-1.193060,
-0.436600,-1.153240,
-0.500510,-1.100510,
-0.553240,-1.036600,
-0.593060,-0.963260,
-0.618230,-0.882210,
-0.627000,-0.795200,
-0.627000,0.795200,
-0.618230,0.882210,
-0.593060,0.963260,
-0.553240,1.036600,
-0.500510,1.100510,
-0.436600,1.153240,
-0.363260,1.193060,
-0.282210,1.218230,
-0.195200,1.227000,
0*%
%TA.AperFunction,Material*%
%ADD65PPAD059*%
%AMPPAD092*
4,1,36,
0.269410,-0.987830,
0.987830,-0.269410,
1.004100,-0.249490,
1.015720,-0.227400,
1.022700,-0.203870,
1.025020,-0.179610,
1.022700,-0.155340,
1.015720,-0.131810,
1.004100,-0.109720,
0.987830,-0.089800,
-0.089800,0.987830,
-0.109720,1.004100,
-0.131810,1.015720,
-0.155340,1.022700,
-0.179610,1.025020,
-0.203870,1.022700,
-0.227400,1.015720,
-0.249490,1.004100,
-0.269410,0.987830,
-0.987830,0.269410,
-1.004100,0.249490,
-1.015720,0.227400,
-1.022700,0.203870,
-1.025020,0.179610,
-1.022700,0.155340,
-1.015720,0.131810,
-1.004100,0.109720,
-0.987830,0.089800,
0.089800,-0.987830,
0.109720,-1.004100,
0.131810,-1.015720,
0.155340,-1.022700,
0.179610,-1.025020,
0.203870,-1.022700,
0.227400,-1.015720,
0.249490,-1.004100,
0.269410,-0.987830,
0*%
%TA.AperFunction,Material*%
%ADD102PPAD092*%
%AMPPAD093*
4,1,36,
0.987830,0.269410,
0.269410,0.987830,
0.249490,1.004100,
0.227400,1.015720,
0.203870,1.022700,
0.179610,1.025020,
0.155340,1.022700,
0.131810,1.015720,
0.109720,1.004100,
0.089800,0.987830,
-0.987830,-0.089800,
-1.004100,-0.109720,
-1.015720,-0.131810,
-1.022700,-0.155340,
-1.025020,-0.179610,
-1.022700,-0.203870,
-1.015720,-0.227400,
-1.004100,-0.249490,
-0.987830,-0.269410,
-0.269410,-0.987830,
-0.249490,-1.004100,
-0.227400,-1.015720,
-0.203870,-1.022700,
-0.179610,-1.025020,
-0.155340,-1.022700,
-0.131810,-1.015720,
-0.109720,-1.004100,
-0.089800,-0.987830,
0.987830,0.089800,
1.004100,0.109720,
1.015720,0.131810,
1.022700,0.155340,
1.025020,0.179610,
1.022700,0.203870,
1.015720,0.227400,
1.004100,0.249490,
0.987830,0.269410,
0*%
%ADD103PPAD093*%
%TA.AperFunction,Material*%
%ADD83C,0.850000*%
%TA.AperFunction,Material*%
%ADD87C,5.080000*%
%AMPPAD094*
4,1,36,
1.127000,-0.300000,
1.127000,0.300000,
1.124420,0.325590,
1.117020,0.349430,
1.105310,0.371000,
1.089800,0.389800,
1.071000,0.405310,
1.049430,0.417020,
1.025590,0.424420,
1.000000,0.427000,
-1.000000,0.427000,
-1.025590,0.424420,
-1.049430,0.417020,
-1.071000,0.405310,
-1.089800,0.389800,
-1.105310,0.371000,
-1.117020,0.349430,
-1.124420,0.325590,
-1.127000,0.300000,
-1.127000,-0.300000,
-1.124420,-0.325590,
-1.117020,-0.349430,
-1.105310,-0.371000,
-1.089800,-0.389800,
-1.071000,-0.405310,
-1.049430,-0.417020,
-1.025590,-0.424420,
-1.000000,-0.427000,
1.000000,-0.427000,
1.025590,-0.424420,
1.049430,-0.417020,
1.071000,-0.405310,
1.089800,-0.389800,
1.105310,-0.371000,
1.117020,-0.349430,
1.124420,-0.325590,
1.127000,-0.300000,
0*%
%TA.AperFunction,Material*%
%ADD104PPAD094*%
%AMPPAD095*
4,1,36,
0.627000,-0.375000,
0.627000,0.375000,
0.624420,0.400590,
0.617020,0.424430,
0.605310,0.446000,
0.589800,0.464800,
0.571000,0.480310,
0.549430,0.492020,
0.525590,0.499420,
0.500000,0.502000,
-0.500000,0.502000,
-0.525590,0.499420,
-0.549430,0.492020,
-0.571000,0.480310,
-0.589800,0.464800,
-0.605310,0.446000,
-0.617020,0.424430,
-0.624420,0.400590,
-0.627000,0.375000,
-0.627000,-0.375000,
-0.624420,-0.400590,
-0.617020,-0.424430,
-0.605310,-0.446000,
-0.589800,-0.464800,
-0.571000,-0.480310,
-0.549430,-0.492020,
-0.525590,-0.499420,
-0.500000,-0.502000,
0.500000,-0.502000,
0.525590,-0.499420,
0.549430,-0.492020,
0.571000,-0.480310,
0.589800,-0.464800,
0.605310,-0.446000,
0.617020,-0.424430,
0.624420,-0.400590,
0.627000,-0.375000,
0*%
%ADD105PPAD095*%
%TA.AperFunction,Profile*%
%ADD46C,0.101600*%
%TD.AperFunction*%
D62*
X+2060093Y+4384997D03*
X+2059748Y+4511980D03*
X+1699766Y+3272345D03*
X+1699878Y+3144942D03*
X+1601886Y+4257935D03*
X+300000Y+3600000D03*
X+4100000Y+4893081D03*
X+3100000Y+4170000D03*
X+3100000Y+4370000D03*
X+2900000Y+4170000D03*
X+2900000Y+4370000D03*
X+1360000Y+400000D03*
X+490928Y+1024082D03*
X+852682Y+3400097D03*
X+2059845Y+4639069D03*
X+600000Y+3200000D03*
X+600000Y+3500000D03*
X+600000Y+3800000D03*
X+187509Y+4113161D03*
X+640000Y+5100000D03*
X+5390000Y+2800000D03*
X+4600000Y+2200000D03*
X+4400000Y+2900000D03*
X+4300000Y+4200000D03*
X+4210000Y+2200000D03*
X+4300000Y+3000000D03*
X+4400000Y+2200000D03*
X+4300000Y+2800000D03*
X+5597682Y+2898946D03*
X+5597553Y+3349596D03*
X+5390000Y+3261362D03*
X+990000Y+2200000D03*
X+800000Y+2963845D03*
X+3196880Y+826880D03*
X+2100000Y+5500000D03*
X+3793261Y+3370000D03*
X+3700000Y+3600000D03*
X+3700000Y+3902540D03*
X+3700000Y+5300000D03*
X+3370000Y+810000D03*
X+3708134Y+844602D03*
X+5530000Y+1210000D03*
X+3028299Y+852999D03*
X+1200000Y+2800000D03*
X+2550804Y+1820804D03*
X+2160000Y+2200000D03*
X+1830000Y+2200000D03*
X+1200000Y+2200000D03*
X+2160000Y+2390000D03*
X+2650000Y+1920000D03*
X+1677397Y+2508914D03*
X+2847862Y+2117862D03*
X+2160000Y+2780000D03*
X+3000000Y+3020000D03*
X+2550000Y+2310000D03*
X+2150794Y+2600100D03*
X+1680000Y+2637000D03*
X+2750000Y+2020000D03*
X+4587054Y+1669540D03*
X+1500000Y+840000D03*
X+919998Y+840000D03*
X+657702Y+1247854D03*
X+600000Y+2552861D03*
X+700000Y+4000000D03*
X+700000Y+4560000D03*
X+700000Y+2400000D03*
X+800000Y+3200000D03*
X+2460000Y+1720000D03*
X+4320000Y+1080000D03*
X+2860000Y+790000D03*
X+2300000Y+700000D03*
X+2580000Y+990000D03*
X+5200000Y+5110000D03*
X+4100064Y+3623438D03*
X+5000000Y+5110000D03*
X+4099732Y+3876823D03*
X+4800000Y+5110000D03*
X+4100000Y+4004000D03*
X+4900000Y+5000000D03*
X+4100000Y+3750000D03*
X+5100000Y+5000000D03*
X+4099511Y+3495974D03*
X+5300000Y+5000000D03*
X+2100000Y+5200000D03*
X+4101403Y+5414884D03*
X+3800000Y+5500000D03*
X+4758737Y+3798737D03*
X+5580000Y+1620000D03*
X+4686831Y+3509120D03*
X+4970000Y+3800000D03*
X+5500000Y+4800000D03*
X+5335947Y+3543324D03*
X+2060136Y+4765983D03*
X+5380000Y+4720000D03*
X+3700000Y+5600000D03*
X+3360000Y+5260000D03*
X+2399727Y+3368634D03*
X+5200000Y+5600000D03*
X+4600000Y+5500000D03*
X+3672217Y+3099684D03*
X+3800000Y+1840000D03*
X+3760000Y+2330000D03*
X+3566492Y+2523508D03*
X+2600000Y+2900000D03*
D65*
X+2668000Y+223000D03*
X+2668000Y+622990D03*
X+3532000Y+622988D03*
X+3532000Y+223000D03*
D62*
X+2000000Y+1100000D03*
X+1164388Y+1061008D03*
X+2100000Y+5020000D03*
D102*
X+3472695Y+1492366D03*
X+3373700Y+1393371D03*
X+3274706Y+1294376D03*
X+2942365Y+2022696D03*
X+2843370Y+1923701D03*
X+2744375Y+1824706D03*
D103*
X+3366629Y+1923701D03*
X+2836299Y+1393371D03*
D83*
X+185880Y+1250000D03*
X+185880Y+950000D03*
D87*
X+300000Y+300000D03*
X+300000Y+5500000D03*
X+5900000Y+5500000D03*
X+5900000Y+300000D03*
D62*
X+890000Y+200000D03*
X+2000000Y+1390000D03*
X+310000Y+3310000D03*
X+437240Y+2353050D03*
X+430000Y+3921060D03*
X+178160Y+2353050D03*
X+2530000Y+3100000D03*
X+1520000Y+3500000D03*
X+1340000Y+3020000D03*
X+780000Y+1660000D03*
X+1470000Y+4750000D03*
X+1470000Y+5060000D03*
X+590000Y+4953940D03*
X+250000Y+4460000D03*
X+950000Y+4160000D03*
X+5070000Y+1930000D03*
X+6070000Y+990000D03*
X+5590000Y+1880000D03*
X+5530000Y+1420000D03*
X+3820000Y+1370000D03*
X+4370000Y+1930000D03*
X+1450000Y+5400000D03*
X+4700000Y+5110000D03*
X+4200000Y+5020000D03*
X+5310000Y+130000D03*
X+6070000Y+1880000D03*
D104*
X+5870000Y+4400000D03*
X+5870000Y+4500000D03*
X+5870000Y+4600000D03*
X+5870000Y+4700000D03*
X+5870000Y+4800000D03*
D105*
X+6100000Y+4240000D03*
X+6100000Y+4960000D03*
D62*
X+5180000Y+4060000D03*
X+3510000Y+2690000D03*
X+6080000Y+3960000D03*
D46*
X+0Y+0D02*
X+6200000Y+0D01*
X+6200000Y+5800000D01*
X+0Y+5800000D01*
X+0Y+0D01*
M02*
