G04 PROTEUS GERBER X2 FILE*
%TF.GenerationSoftware,Labcenter,Proteus,8.17-SP5-Build39395*%
%TF.CreationDate,2025-01-31T21:13:05+00:00*%
%TF.FileFunction,Paste,Top*%
%TF.FilePolarity,Positive*%
%TF.Part,Single*%
%TF.SameCoordinates,{25d9a88a-2623-41a1-bce1-36a6f26497cc}*%
%FSLAX45Y45*%
%MOMM*%
G01*
%TA.AperFunction,Material*%
%ADD106R,0.590000X1.150000*%
%ADD107R,0.300000X1.150000*%
%TA.AperFunction,Material*%
%ADD108R,0.889000X1.524000*%
%TA.AperFunction,Material*%
%ADD109R,1.092200X0.609600*%
%TA.AperFunction,Material*%
%ADD110R,2.000000X0.900000*%
%ADD111R,0.900000X2.000000*%
%ADD112R,1.330000X1.330000*%
%TA.AperFunction,Material*%
%ADD113R,2.032000X0.635000*%
%TA.AperFunction,Material*%
%ADD114R,1.524000X1.016000*%
%TA.AperFunction,Material*%
%ADD115R,0.700000X1.200000*%
%ADD116R,1.000000X1.200000*%
%ADD117R,1.000000X2.800000*%
%ADD118R,1.300000X1.899920*%
%ADD119R,1.000000X0.800100*%
%TA.AperFunction,Material*%
%ADD120R,1.000000X0.500000*%
%ADD121R,0.500000X0.800000*%
%TA.AperFunction,Material*%
%ADD122R,1.550000X0.600000*%
%ADD123R,1.800000X1.200000*%
%TA.AperFunction,Material*%
%ADD124R,1.000000X1.400000*%
%TA.AperFunction,Material*%
%ADD125R,1.016000X1.524000*%
%TA.AperFunction,Material*%
%ADD126R,1.270000X0.558800*%
%TA.AperFunction,Material*%
%ADD127R,1.250000X1.100000*%
%ADD128R,1.000000X1.800000*%
%TA.AperFunction,Material*%
%ADD129R,0.939800X0.609600*%
%ADD130R,0.700000X1.000000*%
%TA.AperFunction,Material*%
%ADD131R,0.600000X1.550000*%
%ADD132R,1.200000X1.800000*%
%TA.AperFunction,Material*%
%ADD133R,1.524000X0.889000*%
%ADD134R,1.270000X1.016000*%
%TA.AperFunction,Material*%
%ADD135R,0.600000X2.000000*%
%ADD136R,0.750000X1.000000*%
%TA.AperFunction,Material*%
%ADD137R,1.100000X1.300000*%
%TA.AperFunction,Profile*%
%ADD46C,0.101600*%
%TD.AperFunction*%
D106*
X+2780000Y+680000D03*
X+2860000Y+680000D03*
D107*
X+2975000Y+680000D03*
X+3075000Y+680000D03*
X+3125000Y+680000D03*
X+3225000Y+680000D03*
D106*
X+3420000Y+680000D03*
X+3340000Y+680000D03*
D107*
X+3275006Y+680000D03*
X+3175000Y+680000D03*
X+3025000Y+680000D03*
X+2924994Y+680000D03*
D108*
X+1981125Y+570000D03*
X+1641125Y+570000D03*
D109*
X+1024388Y+1391008D03*
X+1024388Y+1296008D03*
X+1024388Y+1201008D03*
X+1304388Y+1201008D03*
X+1304388Y+1391008D03*
D110*
X+2250000Y+5020000D03*
X+2250000Y+4893000D03*
X+2250000Y+4766000D03*
X+2250000Y+4639000D03*
X+2250000Y+4512000D03*
X+2250000Y+4385000D03*
X+2250000Y+4258000D03*
X+2250000Y+4131000D03*
X+2250000Y+4004000D03*
X+2250000Y+3877000D03*
X+2250000Y+3750000D03*
X+2250000Y+3623000D03*
X+2250000Y+3496000D03*
X+2250000Y+3369000D03*
D111*
X+2528500Y+3269000D03*
X+2655500Y+3269000D03*
X+2782500Y+3269000D03*
X+2909500Y+3269000D03*
X+3036500Y+3269000D03*
X+3163500Y+3269000D03*
X+3290500Y+3269000D03*
X+3417500Y+3269000D03*
X+3544500Y+3269000D03*
X+3671500Y+3269000D03*
D110*
X+3950000Y+3369000D03*
X+3950000Y+3496000D03*
X+3950000Y+3623000D03*
X+3950000Y+3750000D03*
X+3950000Y+3877000D03*
X+3950000Y+4004000D03*
X+3950000Y+4131000D03*
X+3950000Y+4258000D03*
X+3950000Y+4385000D03*
X+3950000Y+4512000D03*
X+3950000Y+4639000D03*
X+3950000Y+4766000D03*
X+3950000Y+4893000D03*
X+3950000Y+5020000D03*
D112*
X+2817000Y+4454000D03*
X+3000000Y+4454000D03*
X+3183000Y+4454000D03*
X+2817000Y+4270000D03*
X+3000000Y+4270000D03*
X+3183000Y+4270000D03*
X+2817000Y+4087000D03*
X+3000000Y+4087000D03*
X+3183000Y+4087000D03*
D113*
X+4684650Y+3395000D03*
X+4684650Y+3268000D03*
X+4684650Y+3141000D03*
X+4684650Y+3014000D03*
X+4684650Y+2887000D03*
X+4684650Y+2760000D03*
X+4684650Y+2633000D03*
X+4684650Y+2506000D03*
X+5205350Y+2506000D03*
X+5205350Y+2633000D03*
X+5205350Y+2760000D03*
X+5205350Y+2887000D03*
X+5205350Y+3014000D03*
X+5205350Y+3141000D03*
X+5205350Y+3268000D03*
X+5205350Y+3395000D03*
D114*
X+3210000Y+991170D03*
X+3210000Y+1306130D03*
X+2990000Y+991170D03*
X+2990000Y+1306130D03*
X+4970000Y+3907520D03*
X+4970000Y+4222480D03*
X+4760000Y+3907520D03*
X+4760000Y+4222480D03*
D115*
X+4917000Y+1798000D03*
X+4807000Y+1798000D03*
X+4698000Y+1798000D03*
X+4587000Y+1798000D03*
X+4477000Y+1798000D03*
X+4368000Y+1798000D03*
X+4258000Y+1798000D03*
X+4147494Y+1798000D03*
D116*
X+3957502Y+1368000D03*
D117*
X+3957502Y+332488D03*
D118*
X+5307512Y+288000D03*
D116*
X+5073000Y+1798000D03*
D119*
X+3957502Y+747000D03*
D115*
X+4052498Y+1798000D03*
D114*
X+3480000Y+991170D03*
X+3480000Y+1306130D03*
X+2190000Y+1071170D03*
X+2190000Y+1386130D03*
D120*
X+370880Y+1325000D03*
X+370880Y+1025000D03*
X+370880Y+875000D03*
D121*
X+290880Y+755000D03*
X+80880Y+755000D03*
X+80880Y+1445000D03*
X+290880Y+1445000D03*
D122*
X+529600Y+1906060D03*
X+529600Y+1806060D03*
D123*
X+141608Y+2036060D03*
X+141608Y+1676060D03*
D124*
X+1170616Y+513834D03*
X+1360608Y+513834D03*
X+1265612Y+733834D03*
D108*
X+1981125Y+200000D03*
X+1641125Y+200000D03*
D125*
X+1423092Y+200000D03*
X+1108132Y+200000D03*
X+1554158Y+1101008D03*
X+1869118Y+1101008D03*
X+1554158Y+1391008D03*
X+1869118Y+1391008D03*
D126*
X+180000Y+3199020D03*
X+180000Y+3105040D03*
X+180000Y+3011060D03*
X+439080Y+3011060D03*
X+439080Y+3199020D03*
D114*
X+438160Y+2807205D03*
X+438160Y+2492245D03*
X+430000Y+3485040D03*
X+430000Y+3800000D03*
X+180000Y+3485040D03*
X+180000Y+3800000D03*
X+179080Y+2807205D03*
X+179080Y+2492245D03*
D113*
X+1520000Y+2510000D03*
X+1520000Y+2637000D03*
X+1520000Y+2764000D03*
X+1520000Y+2891000D03*
X+1520000Y+3018000D03*
X+1520000Y+3145000D03*
X+1520000Y+3272000D03*
X+1520000Y+3399000D03*
X+999300Y+3399000D03*
X+999300Y+3272000D03*
X+999300Y+3145000D03*
X+999300Y+3018000D03*
X+999300Y+2891000D03*
X+999300Y+2764000D03*
X+999300Y+2637000D03*
X+999300Y+2510000D03*
D114*
X+1410000Y+1775660D03*
X+1410000Y+2090620D03*
X+1620000Y+1775660D03*
X+1620000Y+2090620D03*
X+1830000Y+1775660D03*
X+1830000Y+2090620D03*
X+2040000Y+1775660D03*
X+2040000Y+2090620D03*
X+990000Y+1775660D03*
X+990000Y+2090620D03*
X+1200000Y+1775660D03*
X+1200000Y+2090620D03*
X+780000Y+2090620D03*
X+780000Y+1775660D03*
D125*
X+1264960Y+3820000D03*
X+950000Y+3820000D03*
X+1264960Y+3610000D03*
X+950000Y+3610000D03*
X+1264960Y+4040000D03*
X+950000Y+4040000D03*
D114*
X+1830000Y+5062480D03*
X+1830000Y+4747520D03*
X+1615000Y+5062480D03*
X+1615000Y+4747520D03*
D125*
X+142520Y+4250000D03*
X+457480Y+4250000D03*
X+457480Y+4460000D03*
X+142520Y+4460000D03*
D127*
X+1270000Y+5500000D03*
X+770000Y+5500000D03*
D125*
X+142520Y+4953940D03*
X+457480Y+4953940D03*
X+457480Y+4738940D03*
X+142520Y+4738940D03*
D127*
X+1450000Y+5500000D03*
X+1950000Y+5500000D03*
D125*
X+5642520Y+770000D03*
X+5957480Y+770000D03*
X+5642520Y+990000D03*
X+5957480Y+990000D03*
D128*
X+1080000Y+4520000D03*
X+1330000Y+4520000D03*
D114*
X+1325000Y+4747520D03*
X+1325000Y+5062480D03*
X+1085000Y+4747520D03*
X+1085000Y+5062480D03*
D129*
X+5712516Y+2705000D03*
X+5712516Y+2895000D03*
X+5482516Y+2800000D03*
X+5712516Y+3165000D03*
X+5712516Y+3355000D03*
X+5482516Y+3260000D03*
X+5712516Y+3625000D03*
X+5712516Y+3815000D03*
X+5482516Y+3720000D03*
D114*
X+5922516Y+2945040D03*
X+5922516Y+2630080D03*
X+5922516Y+3420040D03*
X+5922516Y+3105080D03*
X+5922516Y+3890080D03*
X+5922516Y+3575120D03*
D130*
X+5890000Y+1880000D03*
X+5700008Y+1880000D03*
X+5795004Y+1620000D03*
D125*
X+5642520Y+1210000D03*
X+5957480Y+1210000D03*
X+5957480Y+1420000D03*
X+5642520Y+1420000D03*
X+5110000Y+4760000D03*
X+4795040Y+4760000D03*
D114*
X+5180000Y+3907520D03*
X+5180000Y+4222480D03*
D125*
X+5750000Y+2360000D03*
X+6064960Y+2360000D03*
X+5750000Y+2080000D03*
X+6064960Y+2080000D03*
D131*
X+5300012Y+5278880D03*
X+5200000Y+5278880D03*
X+5100000Y+5278880D03*
X+5000000Y+5278880D03*
X+4900000Y+5278880D03*
X+4800000Y+5278880D03*
X+4700000Y+5278880D03*
X+4599988Y+5278880D03*
D132*
X+5430000Y+5665880D03*
X+4470000Y+5665880D03*
D133*
X+2300000Y+560000D03*
X+2300000Y+220000D03*
D134*
X+3370000Y+2691640D03*
X+3370000Y+2905000D03*
X+3200000Y+2691640D03*
X+3200000Y+2905000D03*
X+3000000Y+2691640D03*
X+3000000Y+2905000D03*
X+2830000Y+2691640D03*
X+2830000Y+2905000D03*
D135*
X+3300000Y+2450000D03*
X+3200000Y+2450000D03*
X+3100000Y+2450000D03*
X+3000000Y+2450000D03*
X+2900000Y+2450000D03*
D136*
X+3460000Y+2220000D03*
X+2740000Y+2220000D03*
D137*
X+5340000Y+2335000D03*
X+5340000Y+2105000D03*
X+5520000Y+2105000D03*
X+5520000Y+2335000D03*
D114*
X+2710000Y+990000D03*
X+2710000Y+1304960D03*
D122*
X+5672000Y+4700000D03*
X+5672000Y+4800000D03*
D123*
X+6059992Y+4570000D03*
X+6059992Y+4930000D03*
D130*
X+5675004Y+4070000D03*
X+5864996Y+4070000D03*
X+5770000Y+4330000D03*
D114*
X+6080000Y+4380000D03*
X+6080000Y+4065040D03*
X+5490000Y+4380000D03*
X+5490000Y+4065040D03*
D46*
X+0Y+0D02*
X+6200000Y+0D01*
X+6200000Y+5800000D01*
X+0Y+5800000D01*
X+0Y+0D01*
M02*
